<?xml version="1.0" encoding="utf-8"?>
<!-- Generator: Adobe Illustrator 16.0.0, SVG Export Plug-In . SVG Version: 6.00 Build 0)  -->
<!DOCTYPE svg PUBLIC "-//W3C//DTD SVG 1.1//EN" "http://www.w3.org/Graphics/SVG/1.1/DTD/svg11.dtd">
<svg version="1.1" id="Layer_1" xmlns="http://www.w3.org/2000/svg" xmlns:xlink="http://www.w3.org/1999/xlink" x="0px" y="0px"
	 width="50.21px" height="122.68px" viewBox="0 0 50.21 122.68" enable-background="new 0 0 50.21 122.68" xml:space="preserve">
<g>
	<g>
		<g enable-background="new    ">
			<g>
				<polygon fill="#870534" points="35.269,60.497 30.71,58.017 30.724,54.808 35.282,57.288 				"/>
			</g>
			<g>
				<polygon fill="#870534" points="29.289,67.726 24.73,65.246 24.753,62.044 29.312,64.524 				"/>
			</g>
			<g>
				<polygon fill="#870534" points="35.296,54.08 30.737,51.6 30.752,48.399 35.311,50.879 				"/>
			</g>
			<g>
				<polygon fill="#AA1646" points="11.467,70.169 6.908,67.69 24.73,65.246 29.289,67.726 				"/>
			</g>
			<g>
				<polygon fill="#B4B4B4" points="11.481,66.961 6.922,64.481 24.753,62.044 29.312,64.524 				"/>
			</g>
			<g>
				<polygon fill="#828282" points="11.467,70.169 6.908,67.69 6.922,64.481 11.481,66.961 				"/>
			</g>
			<g>
				<polygon fill="#DFDFDF" points="11.481,66.961 29.312,64.524 29.289,67.726 11.467,70.169 				"/>
			</g>
			<g>
				<polygon fill="#AA1646" points="11.495,63.752 6.936,61.272 30.71,58.017 35.269,60.497 				"/>
			</g>
			<g>
				<polygon fill="#828282" points="11.495,63.752 6.936,61.272 6.958,58.062 11.518,60.542 				"/>
			</g>
			<g>
				<polygon fill="#B4B4B4" points="11.518,60.542 6.958,58.062 30.724,54.808 35.282,57.288 				"/>
			</g>
			<g>
				<polygon fill="#AA1646" points="11.531,57.333 6.972,54.853 30.737,51.6 35.296,54.08 				"/>
			</g>
			<g>
				<polygon fill="#DFDFDF" points="11.545,54.125 35.311,50.879 35.296,54.08 11.531,57.333 				"/>
			</g>
			<g>
				<polygon fill="#B4B4B4" points="11.545,54.125 6.986,51.645 30.752,48.399 35.311,50.879 				"/>
			</g>
			<g>
				<polygon fill="#828282" points="11.531,57.333 6.972,54.853 6.986,51.645 11.545,54.125 				"/>
			</g>
			<g>
				<path fill="#C81F53" d="M49.777,31.774c-6.535,8.378-10.551,18.996-10.571,30.062c-0.02,10.194,3.352,19.047,8.97,25.501
					l-23.774,28.945C12.356,103.956,4.999,86.214,5.038,65.568c0.039-20.977,7.708-41.097,20.15-56.927L49.777,31.774z
					 M35.269,60.497l0.014-3.209l-23.765,3.254l-0.022,3.21L35.269,60.497 M35.296,54.08l0.015-3.201l-23.765,3.246l-0.014,3.208
					L35.296,54.08 M29.289,67.726l0.022-3.202l-17.83,2.438l-0.014,3.208L29.289,67.726"/>
			</g>
			<g>
				<polygon fill="#DFDFDF" points="11.518,60.542 35.282,57.288 35.269,60.497 11.495,63.752 				"/>
			</g>
			<g enable-background="new    ">
				<defs>
					<path id="SVGID_1_" enable-background="new    " d="M24.402,116.283l-4.559-2.479C7.797,101.476,0.44,83.735,0.479,63.087
						c0.04-20.976,7.708-41.096,20.15-56.926l4.559,2.48c-12.442,15.83-20.111,35.95-20.15,56.927
						C4.999,86.214,12.356,103.956,24.402,116.283z"/>
				</defs>
				<clipPath id="SVGID_2_">
					<use xlink:href="#SVGID_1_"  overflow="visible"/>
				</clipPath>
				<g clip-path="url(#SVGID_2_)" enable-background="new    ">
					<path fill="#880635" d="M24.402,116.283l-4.559-2.479C7.797,101.476,0.44,83.735,0.479,63.087
						c0.02-10.669,2.014-21.117,5.606-30.892l4.559,2.48C7.052,44.45,5.058,54.898,5.038,65.568
						C4.999,86.214,12.356,103.956,24.402,116.283"/>
					<path fill="#8C0836" d="M10.644,34.675l-4.559-2.48c1.548-4.211,3.393-8.298,5.503-12.224l4.559,2.48
						C14.036,26.377,12.191,30.464,10.644,34.675"/>
					<path fill="#8F0A38" d="M16.147,22.451l-4.559-2.48c1.794-3.337,3.782-6.558,5.943-9.64l4.559,2.48
						C19.929,15.894,17.941,19.114,16.147,22.451"/>
					<path fill="#930C3A" d="M22.09,12.812l-4.559-2.48c0.996-1.42,2.029-2.812,3.098-4.17l4.559,2.48
						C24.12,10,23.086,11.391,22.09,12.812"/>
				</g>
			</g>
		</g>
	</g>
</g>
<g>
</g>
<g>
</g>
<g>
</g>
<g>
</g>
<g>
</g>
<g>
</g>
</svg>
