<?xml version="1.0" encoding="utf-8"?>
<!-- Generator: Adobe Illustrator 16.0.0, SVG Export Plug-In . SVG Version: 6.00 Build 0)  -->
<!DOCTYPE svg PUBLIC "-//W3C//DTD SVG 1.1//EN" "http://www.w3.org/Graphics/SVG/1.1/DTD/svg11.dtd">
<svg version="1.1" id="Layer_1" xmlns="http://www.w3.org/2000/svg" xmlns:xlink="http://www.w3.org/1999/xlink" x="0px" y="0px"
	 width="612px" height="792px" viewBox="0 0 612 792" enable-background="new 0 0 612 792" xml:space="preserve">
<g>
	<g>
		<g enable-background="new    ">
			<g>
				<polygon fill="#870534" points="316.351,395.198 311.792,392.718 311.806,389.509 316.364,391.989 				"/>
			</g>
			<g>
				<polygon fill="#870534" points="310.371,402.427 305.812,399.946 305.835,396.745 310.394,399.225 				"/>
			</g>
			<g>
				<polygon fill="#870534" points="316.378,388.78 311.819,386.3 311.834,383.1 316.393,385.58 				"/>
			</g>
			<g>
				<polygon fill="#AA1646" points="292.549,404.87 287.99,402.391 305.812,399.946 310.371,402.427 				"/>
			</g>
			<g>
				<polygon fill="#B4B4B4" points="292.563,401.662 288.004,399.182 305.835,396.745 310.394,399.225 				"/>
			</g>
			<g>
				<polygon fill="#828282" points="292.549,404.87 287.99,402.391 288.004,399.182 292.563,401.662 				"/>
			</g>
			<g>
				<polygon fill="#DFDFDF" points="292.563,401.662 310.394,399.225 310.371,402.427 292.549,404.87 				"/>
			</g>
			<g>
				<polygon fill="#AA1646" points="292.577,398.453 288.018,395.973 311.792,392.718 316.351,395.198 				"/>
			</g>
			<g>
				<polygon fill="#828282" points="292.577,398.453 288.018,395.973 288.041,392.763 292.6,395.243 				"/>
			</g>
			<g>
				<polygon fill="#B4B4B4" points="292.6,395.243 288.041,392.763 311.806,389.509 316.364,391.989 				"/>
			</g>
			<g>
				<polygon fill="#AA1646" points="292.613,392.034 288.054,389.554 311.819,386.3 316.378,388.78 				"/>
			</g>
			<g>
				<polygon fill="#DFDFDF" points="292.627,388.825 316.393,385.58 316.378,388.78 292.613,392.034 				"/>
			</g>
			<g>
				<polygon fill="#B4B4B4" points="292.627,388.825 288.068,386.345 311.834,383.1 316.393,385.58 				"/>
			</g>
			<g>
				<polygon fill="#828282" points="292.613,392.034 288.054,389.554 288.068,386.345 292.627,388.825 				"/>
			</g>
			<g>
				<path fill="#C81F53" d="M330.859,366.475c-6.535,8.378-10.551,18.996-10.571,30.062c-0.02,10.194,3.352,19.047,8.97,25.501
					l-23.774,28.945c-12.045-12.327-19.403-30.068-19.364-50.715c0.039-20.977,7.708-41.097,20.15-56.927L330.859,366.475z
					 M316.351,395.198l0.014-3.209l-23.765,3.254l-0.022,3.21L316.351,395.198 M316.378,388.78l0.015-3.201l-23.765,3.246
					l-0.014,3.208L316.378,388.78 M310.371,402.427l0.022-3.202l-17.83,2.438l-0.014,3.208L310.371,402.427"/>
			</g>
			<g>
				<polygon fill="#DFDFDF" points="292.6,395.243 316.364,391.989 316.351,395.198 292.577,398.453 				"/>
			</g>
			<g enable-background="new    ">
				<defs>
					<path id="SVGID_1_" enable-background="new    " d="M305.484,450.983l-4.559-2.479c-12.045-12.327-19.403-30.068-19.364-50.716
						c0.04-20.976,7.708-41.096,20.15-56.926l4.559,2.48c-12.442,15.83-20.111,35.95-20.15,56.927
						C286.081,420.915,293.438,438.656,305.484,450.983z"/>
				</defs>
				<clipPath id="SVGID_2_">
					<use xlink:href="#SVGID_1_"  overflow="visible"/>
				</clipPath>
				<g clip-path="url(#SVGID_2_)" enable-background="new    ">
					<path fill="#880635" d="M305.484,450.983l-4.559-2.479c-12.045-12.327-19.403-30.068-19.364-50.716
						c0.02-10.669,2.014-21.117,5.606-30.892l4.559,2.48c-3.592,9.775-5.586,20.223-5.606,30.893
						C286.081,420.915,293.438,438.656,305.484,450.983"/>
					<path fill="#8C0836" d="M291.726,369.376l-4.559-2.48c1.548-4.211,3.393-8.298,5.503-12.224l4.559,2.48
						C295.118,361.078,293.273,365.165,291.726,369.376"/>
					<path fill="#8F0A38" d="M297.229,357.152l-4.559-2.48c1.794-3.337,3.782-6.558,5.943-9.64l4.559,2.48
						C301.011,350.594,299.023,353.815,297.229,357.152"/>
					<path fill="#930C3A" d="M303.172,347.512l-4.559-2.48c0.996-1.42,2.029-2.812,3.098-4.17l4.559,2.48
						C305.202,344.701,304.168,346.092,303.172,347.512"/>
				</g>
			</g>
		</g>
	</g>
</g>
</svg>
